<svg id="chef" xmlns="http://www.w3.org/2000/svg" width="27.522" height="28" viewBox="0 0 27.522 28">
  <path id="Path_7" data-name="Path 7" d="M445.319,169.858v1.074a1.276,1.276,0,0,0-.046.179,6.758,6.758,0,0,1-3.507,5.255.372.372,0,0,0-.209.381c.007,1.556,0,3.112,0,4.669,0,.6-.22.827-.823.827H422.381c-.6,0-.831-.226-.831-.821,0-1.539,0-3.076.01-4.615a.469.469,0,0,0-.282-.472,6.644,6.644,0,0,1-3.473-5.666,6.777,6.777,0,0,1,5.032-6.9.686.686,0,0,1,.788.153.674.674,0,0,1,.037.8,8.3,8.3,0,0,0-.8,2.711,6.444,6.444,0,0,0-.022,1.225.546.546,0,0,0,.584.45.6.6,0,0,0,.592-.488c.034-.193.024-.393.057-.587a11.638,11.638,0,0,1,.339-1.81,7.36,7.36,0,0,1,5.391-5.008c.4-.1.807-.147,1.211-.219h1.022c.4.066.815.111,1.214.2a7.289,7.289,0,0,1,3.825,2.241.442.442,0,0,0,.394.144,10.706,10.706,0,0,1,1.976.007,6.636,6.636,0,0,1,5.386,4.3A13.821,13.821,0,0,1,445.319,169.858Zm-6.273,4.5c.025-.451-.11-.7-.368-.807a.548.548,0,0,0-.665.13,1.468,1.468,0,0,0-.212.5,4.7,4.7,0,0,1-.268.917c-.437.775-.916,1.527-1.4,2.276-.248.387-.248.752.048.978a.623.623,0,0,0,.945-.215c.442-.638.885-1.278,1.275-1.946A4.453,4.453,0,0,0,439.046,174.361Zm-15-.2c.011.116.017.232.034.347a2.533,2.533,0,0,0,.063.315,9.863,9.863,0,0,0,1.926,3.433.6.6,0,0,0,.843.1.609.609,0,0,0,.145-.836c-.142-.227-.32-.43-.469-.653a6.583,6.583,0,0,1-1.318-2.834.585.585,0,0,0-.651-.535A.63.63,0,0,0,424.046,174.165ZM432.182,176c0-.51,0-1.019,0-1.529a2.971,2.971,0,0,0-.034-.479.578.578,0,0,0-.509-.479.586.586,0,0,0-.637.345,1.375,1.375,0,0,0-.073.471c-.006,1.109,0,2.217,0,3.326a1.885,1.885,0,0,0,.033.345.553.553,0,0,0,.433.457c.433.117.778-.176.788-.687C432.19,177.177,432.182,176.587,432.182,176Z" transform="translate(-417.798 -161)" fill="#a47343"/>
  <path id="Path_8" data-name="Path 8" d="M478.9,474.66h9.14c.652,0,.851.2.851.847,0,.5,0,1,0,1.5a2.55,2.55,0,0,1-2.643,2.643q-7.366.009-14.731,0a2.547,2.547,0,0,1-2.639-2.645c0-.528,0-1.055,0-1.583s.234-.763.774-.764Z" transform="translate(-465.121 -451.657)" fill="#a47343"/>
</svg>
