<svg xmlns="http://www.w3.org/2000/svg" width="23.666" height="28" viewBox="0 0 23.666 28">
  <path id="Icon_metro-spoon-fork" data-name="Icon metro-spoon-fork" d="M8.794,1.928c-2.9,0-5.259,2.742-5.259,6.125a6.01,6.01,0,0,0,4.046,5.961L6.71,28.181a1.631,1.631,0,0,0,1.646,1.747h.877a1.631,1.631,0,0,0,1.646-1.747l-.871-14.167a6.01,6.01,0,0,0,4.046-5.961C14.053,4.67,11.7,1.928,8.794,1.928Zm17.677,0-1.461,8.75h-1.1l-.73-8.75h-.73l-.73,8.75h-1.1l-1.461-8.75h-.73V13.3a.876.876,0,0,0,.877.875H21.6l-.861,14a1.631,1.631,0,0,0,1.646,1.747h.877A1.631,1.631,0,0,0,24.9,28.181l-.861-14h2.283A.876.876,0,0,0,27.2,13.3V1.928Z" transform="translate(-3.535 -1.928)" fill="#a47343"/>
</svg>
