<svg xmlns="http://www.w3.org/2000/svg" width="22.791" height="28" viewBox="0 0 22.791 28">
  <path id="Icon_awesome-stopwatch" data-name="Icon awesome-stopwatch" d="M23.915,16.625A11.395,11.395,0,1,1,10.767,5.387V3.5H9.233a.659.659,0,0,1-.657-.656V.656A.659.659,0,0,1,9.233,0h6.574a.659.659,0,0,1,.657.656V2.844a.659.659,0,0,1-.657.656H14.273V5.387a11.335,11.335,0,0,1,5.462,2.439l1.507-1.5a.659.659,0,0,1,.931,0l1.55,1.548a.656.656,0,0,1,0,.93l-1.611,1.608-.033.033A11.247,11.247,0,0,1,23.915,16.625Zm-9.642,1.969V10.309a.659.659,0,0,0-.657-.656H11.424a.659.659,0,0,0-.657.656v8.285a.659.659,0,0,0,.657.656h2.191A.659.659,0,0,0,14.273,18.594Z" transform="translate(-1.125)" fill="#a47343"/>
</svg>
